PathFileType	4	(X/Y/Z)	 s11c0102.trc
DataRate	CameraRate	NumFrames	NumMarkers	Units	OrigDataRate	OrigDataStartFrame	OrigNumFrames
200	200	4	48	mm	200	1751	2000
Frame#	Time	racr			lacr			c7			jug			rlel			rdr			llel			ldr			s2			lic			ric			lasi			rasi			rpsi			lpsi			rgt			lgt			rth1			rth2			rth3			rth4			rlfc			rmfc			rsh1			rsh2			rsh3			rsh4			rlmal			rcal			rtoe			rmt5			lth1			lth2			lth4			lth3			llfc			lmfc			llmal			lcal			lmt5			lsh1			lsh2			lsh3			lsh4			ltoe			SBIKE			LBIKE			RBIKE			
		X1	Y1	Z1	X2	Y2	Z2	X3	Y3	Z3	X4	Y4	Z4	X5	Y5	Z5	X6	Y6	Z6	X7	Y7	Z7	X8	Y8	Z8	X9	Y9	Z9	X10	Y10	Z10	X11	Y11	Z11	X12	Y12	Z12	X13	Y13	Z13	X14	Y14	Z14	X15	Y15	Z15	X16	Y16	Z16	X17	Y17	Z17	X18	Y18	Z18	X19	Y19	Z19	X20	Y20	Z20	X21	Y21	Z21	X22	Y22	Z22	X23	Y23	Z23	X24	Y24	Z24	X25	Y25	Z25	X26	Y26	Z26	X27	Y27	Z27	X28	Y28	Z28	X29	Y29	Z29	X30	Y30	Z30	X31	Y31	Z31	X32	Y32	Z32	X33	Y33	Z33	X34	Y34	Z34	X35	Y35	Z35	X36	Y36	Z36	X37	Y37	Z37	X38	Y38	Z38	X39	Y39	Z39	X40	Y40	Z40	X41	Y41	Z41	X42	Y42	Z42	X43	Y43	Z43	X44	Y44	Z44	X45	Y45	Z45	X46	Y46	Z46	X47	Y47	Z47	X48	Y48	Z48	
1751	8.7550	485.379809	1417.966109	-87.338899	490.122380	1438.454264	-410.451892	390.711514	1542.612852	-254.263286	451.190835	1371.210409	-257.604406	597.672085	1163.354793	-24.109842	785.142472	924.932166	-60.880708	585.330768	1146.827850	-469.701761	800.609014	915.996530	-412.027133	-109.136170	1191.478477	-260.932945	119.635928	1207.473012	-455.518555	110.230754	1211.583790	-62.441785	155.572515	1134.242648	-422.142272	141.572297	1146.230002	-93.431152	-68.495341	1265.555601	-209.073891	-69.277281	1255.309170	-306.030466	54.702915	1071.743237	-32.283398	34.136518	1068.940546	-468.178921	179.411571	998.437363	-13.728343	262.054394	972.779693	-11.084380	326.035383	912.583266	-16.674315	279.601805	1004.520822	-20.759883	416.290834	847.147324	-23.338565	436.048371	834.910110	-152.930662	313.878678	729.471787	-28.754247	269.726228	658.732365	-57.180670	193.786492	616.482407	-68.341216	291.190957	645.405320	-87.375044	90.238517	544.086112	-96.024702	33.972565	573.884333	-148.011663	221.193622	356.324312	-137.307900	149.725827	383.982495	-70.294362	143.092368	963.064777	-488.873393	218.895663	923.036735	-486.055283	244.730027	949.041359	-479.489624	265.954065	846.504557	-478.562350	361.925122	747.330850	-454.691117	383.740914	745.943061	-329.006363	267.000979	330.753317	-411.864898	214.057769	286.994064	-374.133732	418.220234	242.846962	-438.614623	327.485935	624.925035	-467.906151	337.272792	541.190522	-450.403842	303.402400	460.208876	-440.026532	369.595737	540.246754	-429.603939	511.902704	270.372011	-369.228885	-205.238047	955.357392	-263.007052	1.358736	82.480226	-461.043537	-15.238716	81.023265	-62.433212	
1752	8.7600	485.430747	1417.936464	-87.071349	490.382012	1438.466982	-410.259867	390.836632	1542.623219	-254.095098	451.352564	1371.216023	-257.369571	597.644902	1163.260163	-24.076180	785.100362	924.869510	-61.063694	585.346598	1146.767101	-469.568001	800.683963	915.885959	-411.933236	-109.040072	1191.498393	-261.100465	119.819109	1207.262868	-455.557110	110.222982	1211.794965	-62.429538	155.814266	1134.132636	-422.194398	141.300241	1146.437977	-93.540142	-68.469959	1265.636745	-209.306580	-69.137471	1255.304996	-306.261246	54.969595	1072.868460	-32.010776	33.997218	1068.389617	-468.139675	180.051063	1000.633867	-13.481460	263.107105	975.972453	-10.808836	327.483293	916.423103	-15.751017	280.317797	1007.797503	-20.610927	418.777058	851.833986	-22.723430	438.632762	839.499174	-152.432339	316.438378	734.046320	-28.381082	271.690293	663.247642	-57.227137	196.189689	621.328663	-68.152161	293.728265	649.929812	-87.157890	92.675093	548.770270	-95.910391	36.435167	578.426327	-148.189026	224.077905	361.397513	-137.241192	152.524720	388.911563	-70.227719	141.906342	961.472495	-488.557752	217.181970	920.505273	-485.563285	243.306596	946.217397	-479.017119	263.274558	843.484713	-477.828653	358.167971	743.386970	-453.847738	380.216219	742.428047	-328.188169	264.328404	326.358011	-411.723315	211.458789	282.803222	-374.091004	415.492245	238.033330	-438.648736	323.812385	620.939122	-467.341894	333.859663	537.184413	-449.945237	300.207327	456.076336	-439.806422	366.205036	536.308978	-429.220074	509.274526	265.165754	-369.280925	-205.237551	955.345312	-262.967844	1.364207	82.462790	-461.046117	-15.233031	81.030366	-62.426825	
1753	8.7650	485.464403	1417.921562	-86.836774	490.637825	1438.522848	-410.063942	390.991279	1542.632209	-253.908307	451.492604	1371.196373	-257.171849	597.604129	1163.177670	-24.026417	785.070476	924.817095	-61.231913	585.347073	1146.698461	-469.440079	800.739354	915.814051	-411.857658	-108.964567	1191.533112	-261.257458	120.049302	1207.120308	-455.722603	110.231872	1211.950293	-62.245860	156.034098	1133.965588	-422.207304	141.036539	1146.654877	-93.643886	-68.430670	1265.756269	-209.574290	-68.991356	1255.298010	-306.475516	55.216640	1073.916423	-31.773696	33.793306	1067.924847	-467.916894	180.668261	1002.857822	-13.238176	264.177047	979.121844	-10.538039	329.129594	920.403090	-15.275020	281.049664	1011.196929	-20.464387	421.208051	856.566844	-22.137835	440.994729	844.236083	-152.057940	318.933294	738.683420	-28.039781	274.206756	667.953763	-57.016621	198.727974	626.000716	-67.955688	296.277692	654.652203	-86.866692	95.239161	553.517425	-95.818364	39.099841	582.620013	-148.393799	227.169807	366.434605	-137.147389	155.528244	393.834119	-70.139143	140.669814	959.989524	-488.257419	215.611246	918.114734	-485.198683	241.875984	943.531976	-478.517354	260.562368	840.503666	-477.095577	354.359878	739.540451	-452.992571	376.274425	738.370417	-327.308058	261.596837	322.045264	-411.530192	208.682000	278.648920	-374.201416	412.577869	233.262229	-438.742666	320.129782	617.023589	-466.839954	330.355176	533.215768	-449.575588	296.914190	452.054504	-439.609715	362.708424	532.401430	-428.832599	506.436836	260.094272	-369.330508	-205.241877	955.352703	-262.959429	1.362131	82.475985	-461.026379	-15.173479	81.058069	-62.542501	
1754	8.7700	485.496227	1417.893146	-86.603352	490.909974	1438.547431	-409.802994	391.176817	1542.634603	-253.723606	451.616985	1371.147772	-256.961383	597.559702	1163.089967	-23.962034	785.048109	924.783324	-61.343967	585.344923	1146.618929	-469.372648	800.783632	915.727773	-411.790730	-108.833489	1191.592203	-261.428917	120.183990	1206.808828	-455.645916	110.229255	1212.238208	-62.237983	156.217852	1133.817463	-422.261494	140.748076	1146.906243	-93.770351	-68.381924	1265.836803	-209.806410	-68.855743	1255.306351	-306.667074	55.401814	1075.089644	-31.575159	33.540456	1067.466649	-467.868957	181.262686	1005.109104	-12.998525	265.247555	982.428852	-10.291267	330.926959	924.105173	-15.074036	281.785945	1014.551609	-20.419053	423.627970	861.317591	-21.637661	443.495704	849.102743	-151.769974	321.549406	743.358320	-27.716631	276.856495	672.590366	-56.715655	201.427536	630.585063	-67.725145	299.189020	659.476086	-86.410731	97.881236	558.107142	-95.770369	41.658470	586.996358	-148.348020	230.395094	371.548298	-137.045743	158.700323	398.674724	-70.041328	139.438069	958.563410	-487.984415	213.828670	915.860096	-484.712193	240.369142	940.904429	-477.972250	257.837078	837.460234	-476.125994	350.563403	735.707573	-452.183522	372.226105	734.369237	-326.451954	258.661955	317.877872	-411.323599	205.816730	274.692122	-374.246520	409.470468	228.646068	-438.844256	316.413725	613.270517	-466.366994	326.801017	529.414034	-449.185933	293.481121	448.166541	-439.353676	359.118762	528.572411	-428.441800	503.407109	255.243791	-369.412122	-205.238034	955.349857	-262.932920	1.401362	82.403917	-461.119850	-15.237749	81.042025	-62.436308	
